HIERARCHY
ROOT Hips
{
	OFFSET 0.000000 0.000000 0.000000
	CHANNELS 6 Xposition Yposition Zposition Xrotation Yrotation Zrotation
	JOINT LeftUpLeg_virtual
	{
		OFFSET 0.000000 0.000000 0.000000
		CHANNELS 3 Xrotation Yrotation Zrotation
		JOINT LeftUpLeg
		{
			OFFSET 13.026900 -6.336304 -1.092800
			CHANNELS 3 Xrotation Yrotation Zrotation
			JOINT LeftLeg
			{
				OFFSET 0.524474 -46.096886 9.782700
				CHANNELS 3 Xrotation Yrotation Zrotation
				JOINT LeftFoot
				{
					OFFSET -0.524474 -53.427422 -12.948200
					CHANNELS 3 Xrotation Yrotation Zrotation
					JOINT LeftToeBase
					{
						OFFSET 0.192200 -14.009700 16.364100
						CHANNELS 3 Xrotation Yrotation Zrotation
						JOINT LeftToe_End
						{
							OFFSET -1.784700 -0.561700 9.474800
							CHANNELS 3 Xrotation Yrotation Zrotation
							End Site
							{
								OFFSET 0 0 0
							}
						}
					}
				}
			}
		}
	}
	JOINT RightUpLeg_virtual
	{
		OFFSET 0.000000 0.000000 0.000000
		CHANNELS 3 Xrotation Yrotation Zrotation
		JOINT RightUpLeg
		{
			OFFSET -12.883000 -6.336304 -1.092800
			CHANNELS 3 Xrotation Yrotation Zrotation
			JOINT RightLeg
			{
				OFFSET -0.524587 -46.096825 9.782800
				CHANNELS 3 Xrotation Yrotation Zrotation
				JOINT RightFoot
				{
					OFFSET 0.524587 -53.427383 -12.948300
					CHANNELS 3 Xrotation Yrotation Zrotation
					JOINT RightToeBase
					{
						OFFSET -0.192200 -14.009700 16.364100
						CHANNELS 3 Xrotation Yrotation Zrotation
						JOINT RightToe_End
						{
							OFFSET 1.784700 -0.561700 9.474800
							CHANNELS 3 Xrotation Yrotation Zrotation
							End Site
							{
								OFFSET 0 0 0
							}
						}
					}
				}
			}
		}
	}
	JOINT Spine_virtual
	{
		OFFSET 0.000000 0.000000 0.000000
		CHANNELS 3 Xrotation Yrotation Zrotation
		JOINT Spine
		{
			OFFSET 0.072000 7.257294 -0.789700
			CHANNELS 3 Xrotation Yrotation Zrotation
			JOINT Spine1
			{
				OFFSET 0.000000 12.508769 -0.658067
				CHANNELS 3 Xrotation Yrotation Zrotation
				JOINT Spine1_split
				{
					OFFSET 0.000000 12.508769 -0.658067
					CHANNELS 3 Xrotation Yrotation Zrotation
					JOINT Spine2
					{
						OFFSET 0.000000 12.508769 -0.658067
						CHANNELS 3 Xrotation Yrotation Zrotation
						JOINT Neck_virtual
						{
							OFFSET 0.000000 0.000000 0.000000
							CHANNELS 3 Xrotation Yrotation Zrotation
							JOINT Neck
							{
								OFFSET 0.000000 14.033295 7.520400
								CHANNELS 3 Xrotation Yrotation Zrotation
								JOINT Head
								{
									OFFSET 0.000000 8.198502 5.703100
									CHANNELS 3 Xrotation Yrotation Zrotation
									JOINT HeadTop_End
									{
										OFFSET 0.000000 17.760803 13.332701
										CHANNELS 3 Xrotation Yrotation Zrotation
										End Site
										{
											OFFSET 0 0 0
										}
									}
								}
							}
						}
						JOINT LeftShoulder_virtual
						{
							OFFSET 0.000000 0.000000 0.000000
							CHANNELS 3 Xrotation Yrotation Zrotation
							JOINT LeftShoulder
							{
								OFFSET 6.292450 5.785301 -0.669000
								CHANNELS 3 Xrotation Yrotation Zrotation
								JOINT LeftShoulder_split
								{
									OFFSET 6.292450 5.785301 -0.669000
									CHANNELS 3 Xrotation Yrotation Zrotation
									JOINT LeftArm
									{
										OFFSET 13.907140 -6.093903 1.965100
										CHANNELS 3 Xrotation Yrotation Zrotation
										JOINT LeftForeArm
										{
											OFFSET 34.140198 0.000000 0.000000
											CHANNELS 3 Xrotation Yrotation Zrotation
											JOINT LeftHand
											{
												OFFSET 40.960209 0.000000 0.000000
												CHANNELS 3 Xrotation Yrotation Zrotation
												End Site
												{
													OFFSET 0 0 0
												}
											}
										}
									}
								}
							}
						}
						JOINT RightShoulder_virtual
						{
							OFFSET 0.000000 0.000000 0.000000
							CHANNELS 3 Xrotation Yrotation Zrotation
							JOINT RightShoulder
							{
								OFFSET -6.292450 5.785301 -0.669000
								CHANNELS 3 Xrotation Yrotation Zrotation
								JOINT RightShoulder_split
								{
									OFFSET -6.292450 5.785301 -0.669000
									CHANNELS 3 Xrotation Yrotation Zrotation
									JOINT RightArm
									{
										OFFSET -13.907140 -6.093903 1.965100
										CHANNELS 3 Xrotation Yrotation Zrotation
										JOINT RightForeArm
										{
											OFFSET -34.140198 0.000000 0.000000
											CHANNELS 3 Xrotation Yrotation Zrotation
											JOINT RightHand
											{
												OFFSET -40.960209 0.000000 0.000000
												CHANNELS 3 Xrotation Yrotation Zrotation
												End Site
												{
													OFFSET 0 0 0
												}
											}
										}
									}
								}
							}
						}
					}
				}
			}
		}
	}
}
MOTION
Frames: 4
Frame Time: 0.03333333
1.919738 106.911316 2.467049 0.000000 0.000000 0.000000 6.044933 -7.655193 -0.894008 -77.903949 3.294869 11.910488 111.499792 10.170150 -5.338912 36.747060 -12.501762 13.888109 6.199365 -6.614695 0.345618 0.000000 0.000000 0.000000 1.801808 -10.470411 -0.346453 5.780194 -2.069313 6.543164 16.993634 4.752353 -3.428237 1.637450 -0.488068 -11.906840 -24.186984 4.290131 9.493447 0.000000 0.000000 0.000000 3.041979 -1.614812 2.418594 -0.217173 2.286047 0.229051 11.268678 2.991074 -0.858279 0.499892 15.608748 -2.889234 0.000000 0.000000 0.000000 10.242677 2.389991 -1.550599 7.861175 -1.722430 -9.523095 -14.037628 6.599392 -10.680531 0.000000 0.000000 0.000000 10.273606 3.090467 -0.643208 -0.203312 -12.849460 -8.540619 -3.105788 -3.099348 -6.919353 24.692519 5.682904 -45.769682 86.958991 -82.808517 71.890193 0.000000 0.000000 0.000000 12.661892 3.807203 -0.725283 0.880579 1.476816 7.111442 6.301973 4.161064 4.104578 -6.927808 -5.900869 58.739927 -89.149036 76.457711 81.942941 0.000000 0.000000 0.000000 
0.732680 105.065208 19.339409 0.000000 0.000000 0.000000 2.719654 -11.899672 0.577822 -81.932511 4.625088 14.357309 98.957215 11.562585 -5.112138 35.449740 -12.104139 13.727949 7.893602 -6.290423 0.650746 0.000000 0.000000 0.000000 0.892295 -16.885433 1.268253 6.413506 -3.004031 4.208420 21.433489 4.892590 -2.673649 6.200021 -1.120416 -11.683769 -24.202159 4.077053 10.423111 0.000000 0.000000 0.000000 1.995624 -2.528692 2.796034 0.725269 3.099975 -0.936744 11.345569 2.862152 -1.240863 1.993418 15.803632 -2.642825 0.000000 0.000000 0.000000 9.706343 2.435967 -1.737870 7.589945 -2.032498 -9.745274 -13.369849 7.254656 -10.348770 0.000000 0.000000 0.000000 10.143100 3.288048 -0.834350 0.184206 -11.490390 -7.193012 -4.370499 -2.903368 -6.860170 31.006159 11.648805 -45.847611 50.421310 -80.025829 35.284672 0.000000 0.000000 0.000000 12.212897 3.849399 -1.169900 0.601165 1.449889 5.569315 5.091258 0.317339 0.476881 -9.802652 -8.500569 55.330495 -119.376339 75.630036 112.143633 0.000000 0.000000 0.000000 
0.887197 100.796585 43.038879 0.000000 0.000000 0.000000 -0.472594 -18.059712 4.272508 -83.052921 2.740883 14.135143 81.318866 12.843455 -3.041148 33.759118 -10.441761 10.424818 8.536641 -5.735122 0.953924 0.000000 0.000000 0.000000 -1.372292 -23.710898 4.770658 7.909909 -2.444843 0.917473 30.641605 6.057231 -1.788364 12.705419 -0.748197 -9.488494 -24.417267 3.808125 11.639321 0.000000 0.000000 0.000000 -0.505792 -5.974694 5.431019 2.614457 4.223473 -3.026629 11.600983 2.848209 -2.529955 1.799768 12.916989 -0.882885 0.000000 0.000000 0.000000 9.569366 2.644080 -2.917860 8.133895 -2.428805 -9.630209 -11.904768 6.446617 -9.575141 0.000000 0.000000 0.000000 10.559608 3.592820 -2.188520 0.503235 -9.103112 -4.961658 -5.486834 -3.460528 -5.233634 36.663076 18.807392 -48.299095 32.050629 -71.499861 15.963151 0.000000 0.000000 0.000000 12.089651 4.069334 -2.781135 0.593982 1.853883 2.742683 4.097036 -2.652403 -0.388824 -9.617358 -13.251074 49.079137 -142.227024 70.229180 135.808900 0.000000 0.000000 0.000000 
2.382455 93.624603 70.129440 0.000000 0.000000 0.000000 -2.992690 -24.525514 9.441941 -81.418560 -1.439879 10.919172 63.422780 13.214008 0.623407 33.012715 -7.244622 5.315800 7.440050 -5.040592 1.342873 0.000000 0.000000 0.000000 -2.736541 -30.392344 9.888128 9.974682 -0.857189 -2.099730 41.174580 8.116301 -1.362448 16.847865 0.929066 -7.872578 -22.701425 3.918914 12.483278 0.000000 0.000000 0.000000 -4.331702 -11.559483 9.896457 4.964155 5.248437 -5.555120 11.983495 2.796400 -4.293025 1.055375 7.855127 0.915036 0.000000 0.000000 0.000000 9.797990 2.858730 -4.681451 9.443297 -2.631021 -9.831297 -10.074576 4.820466 -8.850901 0.000000 0.000000 0.000000 11.247735 3.774474 -4.181922 0.663590 -6.038034 -2.708592 -5.648695 -4.918061 -4.187078 40.659816 25.156452 -52.353677 27.546962 -61.366026 9.732084 0.000000 0.000000 0.000000 12.310825 4.170915 -5.098077 0.815593 2.659562 0.051283 4.102030 -3.869175 1.223799 -5.117745 -18.614318 42.717639 -152.529244 63.980206 147.812984 0.000000 0.000000 0.000000 
